<?xml version="1.0" standalone="no"?>
<!DOCTYPE svg PUBLIC "-//W3C//DTD SVG 20010904//EN"
 "http://www.w3.org/TR/2001/REC-SVG-20010904/DTD/svg10.dtd">
<svg version="1.0" xmlns="http://www.w3.org/2000/svg"
 width="700.000000pt" height="700.000000pt" viewBox="0 0 700.000000 700.000000"
 preserveAspectRatio="xMidYMid meet">
<metadata>
Created by potrace 1.14, written by Peter Selinger 2001-2017
</metadata>
<g transform="translate(0.000000,700.000000) scale(0.100000,-0.100000)"
fill="#000000" stroke="none">
<path d="M3195 6981 c-22 -10 -53 -31 -68 -47 -54 -54 -61 -78 -63 -224 -2
-74 -3 -138 -3 -141 -1 -3 -522 -6 -1158 -6 -637 0 -1176 -3 -1197 -7 -116
-19 -224 -119 -257 -237 -8 -32 -12 -204 -12 -639 1 -583 1 -596 22 -651 24
-64 77 -130 131 -164 89 -56 -90 -53 2807 -53 1546 0 2691 4 2719 9 27 5 78
23 114 40 58 27 100 65 406 372 273 274 343 350 351 380 15 50 10 135 -10 173
-9 17 -166 180 -348 363 -301 300 -340 335 -404 366 -39 20 -94 38 -125 41
-30 4 -529 7 -1109 8 l-1054 1 -1 141 -1 141 -35 51 c-19 28 -52 61 -75 74
-39 22 -48 23 -315 25 -248 2 -279 1 -315 -16z"/>
<path d="M3071 4370 c-5 -3 -8 -93 -9 -200 0 -107 -1 -204 -1 -215 -1 -20 -8
-20 -1068 -20 -588 0 -1087 -3 -1109 -6 -23 -3 -72 -20 -109 -38 -61 -28 -100
-63 -387 -349 -176 -174 -333 -337 -350 -361 -24 -34 -32 -57 -34 -98 -5 -109
-4 -111 363 -476 352 -353 389 -382 498 -407 73 -17 5394 -16 5455 0 106 29
203 125 231 230 17 65 17 1197 0 1260 -27 97 -98 181 -189 223 l-47 21 -1170
2 c-643 1 -1179 3 -1190 3 -19 1 -20 7 -18 216 1 159 -1 215 -10 216 -40 4
-850 3 -856 -1z"/>
<path d="M3063 973 c0 -850 -1 -839 57 -901 63 -66 67 -67 364 -70 302 -4 320
-1 389 66 67 65 65 47 65 910 l-1 772 -437 0 -437 0 0 -777z"/>
</g>
</svg>
